<?xml version="1.0" standalone="no"?>
<!DOCTYPE svg PUBLIC "-//W3C//DTD SVG 20010904//EN"
 "http://www.w3.org/TR/2001/REC-SVG-20010904/DTD/svg10.dtd">
<svg version="1.0" xmlns="http://www.w3.org/2000/svg"
 width="1280.000000pt" height="1072.000000pt" viewBox="0 0 1280.000000 1072.000000"
 preserveAspectRatio="xMidYMid meet">

<g transform="translate(0.000000,1072.000000) scale(0.100000,-0.100000)"
fill="#000000" stroke="none">
<path d="M8891 6005 c-47 -24 -93 -52 -103 -63 -18 -18 -18 -19 12 -53 53 -60
73 -113 67 -178 -10 -120 -104 -231 -260 -311 -111 -56 -144 -59 -252 -25 -95
30 -157 30 -216 0 -35 -18 -67 -17 -164 9 -183 48 -403 -11 -604 -162 -85 -64
-314 -291 -556 -553 -88 -95 -203 -208 -255 -252 -105 -87 -261 -193 -330
-225 -139 -63 -171 -76 -235 -99 -185 -64 -416 -119 -730 -172 -99 -17 -223
-38 -275 -47 -546 -92 -704 -146 -908 -307 -183 -145 -422 -438 -422 -519 0
-33 52 -96 86 -104 17 -4 46 7 106 44 150 89 273 142 473 201 174 52 201 55
540 54 176 0 345 -3 375 -6 130 -14 564 -37 965 -53 177 -7 515 9 700 32 161
20 304 55 455 110 621 228 1142 661 1251 1041 30 108 32 159 9 257 l-20 89 34
51 c54 79 63 128 44 233 -26 136 -25 138 137 275 210 178 272 260 301 400 29
137 -1 309 -64 358 -36 29 -68 24 -161 -25z m-946 -880 c74 -37 85 -58 23 -42
-61 17 -174 13 -238 -7 -51 -17 -74 -37 -345 -311 -238 -240 -415 -408 -480
-453 -5 -4 -41 -30 -80 -58 -177 -130 -311 -202 -503 -270 -127 -45 -400 -120
-407 -112 -3 2 26 15 63 27 421 144 750 338 987 583 117 120 125 129 222 251
173 216 271 317 358 367 88 50 128 60 240 57 89 -2 107 -5 160 -32z m-3575
-1609 c-80 -40 -183 -96 -230 -124 -46 -28 -86 -49 -89 -46 -9 9 74 85 142
131 85 57 220 105 312 111 6 1 -55 -32 -135 -72z"/>
</g>
</svg>
